<?xml version="1.0" encoding="UTF-8"?>
<!DOCTYPE svg PUBLIC "-//W3C//DTD SVG 1.1//EN" "http://www.w3.org/Graphics/SVG/1.1/DTD/svg11.dtd">
<svg xmlns="http://www.w3.org/2000/svg" version="1.1" width="847px" height="864px" style="shape-rendering:geometricPrecision; text-rendering:geometricPrecision; image-rendering:optimizeQuality; fill-rule:evenodd; clip-rule:evenodd" xmlns:xlink="http://www.w3.org/1999/xlink">
<g><path style="opacity:0.993" d="M 381.5,499.5 C 464.72,496.27 546.053,507.103 625.5,532C 675.807,547.323 724.141,567.323 770.5,592C 773.187,593.875 775.021,596.375 776,599.5C 778.522,628.954 780.022,658.454 780.5,688C 781.69,708.46 779.857,728.627 775,748.5C 774.038,754.274 771.205,758.774 766.5,762C 754.636,763.094 743.302,761.094 732.5,756C 693.809,733.318 654.476,711.651 614.5,691C 526.132,650.327 433.799,636.66 337.5,650C 273.936,662.74 214.602,686.074 159.5,720C 139.167,733 118.833,746 98.5,759C 91.2507,762.958 83.9174,763.292 76.5,760C 73.1596,757.328 71.3263,753.828 71,749.5C 70.4235,742.505 69.9235,735.505 69.5,728.5C 73.2702,683.464 77.4369,638.464 82,593.5C 82.6898,590.804 84.1898,588.637 86.5,587C 178.095,535.079 276.429,505.912 381.5,499.5 Z"/></g>
<g><path style="opacity:0.947"  d="M 386.5,647.5 C 468.494,646 546.494,662.833 620.5,698C 656.633,715.893 691.633,735.56 725.5,757C 738.625,764.559 752.625,767.226 767.5,765C 770.701,762.733 774.034,761.066 777.5,760C 775.338,765.817 773.172,771.65 771,777.5C 766.412,786.545 759.245,789.711 749.5,787C 737.683,783.505 726.349,778.839 715.5,773C 680.473,751.147 644.473,730.814 607.5,712C 531.46,675.725 451.46,661.059 367.5,668C 325.481,672.896 285.148,683.896 246.5,701C 233.167,707.333 219.833,713.667 206.5,720C 171.167,739.667 135.833,759.333 100.5,779C 93.1142,782.772 85.4475,783.772 77.5,782C 71.401,775.373 68.2343,767.54 68,758.5C 77.6131,765.934 88.1131,767.434 99.5,763C 127.997,744.248 156.997,726.248 186.5,709C 230.25,684.638 276.583,666.971 325.5,656C 345.811,651.922 366.144,649.088 386.5,647.5 Z"/></g>
</svg>
